# xmcd
#
# Track frame offsets: 
#        150
#        11273
#        20346
#        38721
#        51360
#        64048
#        77640
#        91270
#        104550
#
# Disc length: 1610 seconds
#
# Revision: 0
# Processed by: cddbd v1.5.2PL0 Copyright (c) Steve Scherf et al.
# Submitted via: ExactAudioCopyFreeDBPlugin 1.0
#
DISCID=64064809
DTITLE=Smokin' 45s - Live At The Palomino
DYEAR=2010
DGENRE=Blues
TTITLE0=Freight Train Blues Boogie
TTITLE1=Another Man
TTITLE2=Walkin' After Midnight
TTITLE3=40 Hooves
TTITLE4=One Eyed Jack
TTITLE5=Hangover Roadtrip
TTITLE6=Small Doses
TTITLE7=Put The Blame On Me
TTITLE8=Conductor
EXTD=
EXTT0=
EXTT1=
EXTT2=
EXTT3=
EXTT4=
EXTT5=
EXTT6=
EXTT7=
EXTT8=
PLAYORDER=
